<?xml version="1.0" encoding="utf-8" ?><svg xmlns="http://www.w3.org/2000/svg" xmlns:xlink="http://www.w3.org/1999/xlink" width="1000" height="1000" viewBox="500 200 1400 1400"><rect x="500" y="200" width="1400" height="1400" rx="300" fill="#FF1457"/><path fill="#FFFFFF" d="M1337.01 572.168C1348.59 561.224 1505.16 433.49 1510.43 432.179C1517.61 443.48 1525.13 468.597 1530.73 481.76C1534.04 489.552 1552.77 532.482 1550.72 537.816C1530.19 591.184 1509.34 644.58 1489.17 698.106C1488.41 700.121 1487.96 701.962 1489.01 703.787C1494.17 703.061 1518.81 692.335 1525.27 690.05C1554.05 679.863 1583.95 666.186 1612.59 656.456C1612.72 680.392 1612.49 705.512 1613.22 729.348C1578 767.406 1543.57 806.179 1509.94 845.645L1481.7 877.734C1476.52 883.598 1466.69 891.748 1467.65 899.543C1473.7 948.568 1482.4 997.288 1489.31 1046.21C1491.52 1061.89 1495.81 1077.54 1497.92 1093.09C1489.72 1086.69 1454.12 1060.28 1446.17 1056.58C1446.84 1091.84 1451.45 1128.83 1453.4 1164.22C1454.96 1192.72 1459.61 1219.72 1460.2 1248.64C1451.64 1237.98 1422.92 1210.32 1411.91 1199.01C1400.31 1245.91 1390.81 1294.08 1381.15 1341.45C1379.98 1347.23 1378.76 1353.26 1377.82 1359.06C1377.52 1360.36 1377.23 1363.18 1376.2 1363.57C1367.93 1366.71 1353.81 1365.63 1345.3 1364.44C1343.17 1364.15 1342.72 1362.37 1341.85 1360.87C1332.72 1348.76 1311.58 1326.18 1300.84 1314L1208.16 1209.8C1195.55 1213.23 1175.96 1220.51 1163.16 1224.8C1129.42 1236.21 1095.61 1247.42 1061.73 1258.41C1049.53 1262.34 1036.26 1267.23 1024.16 1270.65C1019.58 1272.62 1011.9 1275.06 1006.98 1276.79C1009.86 1272.2 1012.48 1266.91 1015.14 1262.12C1027.33 1239.87 1038.82 1216.71 1051.02 1194.34C1055.5 1186.1 1071.05 1158.13 1073.58 1150.79C1068.44 1148.3 1046.21 1157.67 1040.37 1159.59L992.172 1174.94L786.549 1240.91C790.35 1236.34 810.199 1207.61 812.135 1203.73C817.584 1192.81 873.085 1118.49 872.844 1112.07C868.146 1111.06 848.797 1111.58 842.747 1111.62C825.847 1111.81 808.945 1111.75 792.046 1111.45C815.105 1095.53 848.488 1063.19 872.851 1044.25L874.644 1042.64C884.706 1032.82 904.479 1018.93 913.006 1009.44L912.541 1008.25L903.476 1006.02C893.372 1005.04 883.3 1004.23 873.309 1002.44C870.354 1002.63 857.022 1001.06 852.96 1000.73C857.535 996.671 862.545 992.207 867.417 988.526C903.8 961.039 938.867 925.111 975.95 899.051C983.343 902.546 997.053 906.399 1005.4 909.384C1027.26 917.2 1049.49 924.487 1071.23 932.629L1073.81 932.118C1075.56 929.987 1076.79 907.695 1076.49 903.808C1072.55 900.222 1065.86 899.114 1060.78 895.57L838.295 817.656C920.6 778.284 1004.07 741.032 1086.68 702.48C1092.23 699.887 1117.95 674.284 1124.2 668.667C1148.27 646.988 1172.14 625.082 1195.8 602.951C1205.58 593.864 1217.82 583.649 1226.91 574.36C1264.01 573.473 1299.76 572.166 1337.01 572.168ZM1249.32 694.294C1257.38 686.521 1326.38 625.81 1327.2 622.944L1325.82 622.144L1324.52 622.516C1315.44 623.423 1304.4 625.601 1295.2 627.128C1284.43 628.916 1270.21 630.318 1260 633.07C1256.9 637.928 1246.42 689.922 1247.64 693.837L1249.32 694.294Z"/><path fill="#FFFFFF" d="M975.95 899.051C983.343 902.546 997.053 906.399 1005.4 909.384C1027.26 917.2 1049.49 924.487 1071.23 932.629L1073.81 934.065C1074.1 937.085 1069.92 967.055 1069.11 972.003C1064.65 999.302 1062.61 1033.13 1057.26 1059.73C1091.24 1028.88 1128.58 1000.48 1163.12 970.154C1168.38 965.54 1174.27 960.495 1179.84 956.358C1182.69 953.513 1184.6 951.064 1188.28 949.57L1189.66 950.404L1189.63 953.855C1191.56 969.109 1196.06 997.72 1196.63 1012.25C1197 1015.31 1197.98 1021.73 1198.01 1024.53C1199.8 1033.05 1200.89 1044.45 1201.75 1053.25C1204.45 1080.9 1209.05 1108.55 1212.11 1136.1C1242.28 1104.11 1278.15 1072.1 1309.65 1041.02C1312.82 1090.97 1320.74 1149.36 1325.98 1200.06L1333.88 1274.52C1335.18 1286.62 1336.68 1305.79 1339.03 1317.22C1339.05 1321.85 1339.15 1323.64 1339.92 1328.19C1340.29 1333.79 1343.62 1357.93 1341.85 1360.87C1332.72 1348.76 1311.58 1326.18 1300.84 1314L1208.16 1209.8C1195.55 1213.23 1175.96 1220.51 1163.16 1224.8C1129.42 1236.21 1095.61 1247.42 1061.73 1258.41C1049.53 1262.34 1036.26 1267.23 1024.16 1270.65C1019.58 1272.62 1011.9 1275.06 1006.98 1276.79C1009.86 1272.2 1012.48 1266.91 1015.14 1262.12C1027.33 1239.87 1038.82 1216.71 1051.02 1194.34C1055.5 1186.1 1071.05 1158.13 1073.58 1150.79C1068.44 1148.3 1046.21 1157.67 1040.37 1159.59L992.172 1174.94L786.549 1240.91C790.35 1236.34 810.199 1207.61 812.135 1203.73C817.584 1192.81 873.085 1118.49 872.844 1112.07C868.146 1111.06 848.797 1111.58 842.747 1111.62C825.847 1111.81 808.945 1111.75 792.046 1111.45C815.105 1095.53 848.488 1063.19 872.851 1044.25L874.644 1042.64C884.706 1032.82 904.479 1018.93 913.006 1009.44L912.541 1008.25L903.476 1006.02C893.372 1005.04 883.3 1004.23 873.309 1002.44C870.354 1002.63 857.022 1001.06 852.96 1000.73C857.535 996.671 862.545 992.207 867.417 988.526C903.8 961.039 938.867 925.111 975.95 899.051Z"/><path fill="#FFFFFF" d="M873.309 1002.44L874.03 1000.87C883.765 998.889 904.049 1003.09 914.172 1005.24L903.476 1006.02C893.372 1005.04 883.3 1004.23 873.309 1002.44Z"/><path fill="#FFFFFF" d="M1015.14 1262.12C1017.65 1264.91 1021.08 1268.57 1024.16 1270.65C1019.58 1272.62 1011.9 1275.06 1006.98 1276.79C1009.86 1272.2 1012.48 1266.91 1015.14 1262.12Z"/><path fill="#FFFFFF" d="M1179.84 956.358C1182.69 953.513 1184.6 951.064 1188.28 949.57L1189.66 950.404L1189.63 953.855C1187.19 956.796 1187.39 957.812 1187.01 961.616C1184.26 962.24 1183.74 961.756 1181.05 960.847C1179.54 958.323 1180.53 958.577 1179.84 956.358Z"/><path fill="#FFFFFF" d="M1198.01 1024.53C1197.76 1028.75 1198.07 1030.48 1197.43 1035.05L1196.49 1034.2C1194.36 1026.32 1193.53 1021.08 1195.1 1013.01L1196.63 1012.25C1197 1015.31 1197.98 1021.73 1198.01 1024.53Z"/><path fill="#1D1D19" d="M923.117 814.195C966.62 805.444 1011.67 788.626 1055.18 778.316C1062.51 776.579 1071.33 774.149 1078.4 771.709C1073.02 782.354 1056.96 815.834 1051.12 824.121C1073.6 819.323 1100.16 815.275 1123.07 811.55C1115.7 867.657 1106.78 925.931 1100.45 981.93C1126.42 957.666 1158 933.998 1184.74 910.095C1194.22 901.622 1205.42 893.228 1214.47 884.404C1219.84 937.974 1227.33 991.601 1233.27 1045.13C1233.9 1050.8 1234.7 1057.87 1236.04 1063.35L1236.24 1065.23L1237.62 1065.56C1241.77 1062.76 1244.37 1059.55 1247.69 1055.87C1276.46 1030.88 1305.8 998.393 1334.33 972.472L1362.3 1235.15L1370.97 1315.23C1372.4 1328.6 1373.69 1345.65 1375.74 1358.58L1377.02 1359.36L1377.82 1359.06C1377.52 1360.36 1377.23 1363.18 1376.2 1363.57C1367.93 1366.71 1353.81 1365.63 1345.3 1364.44C1343.17 1364.15 1342.72 1362.37 1341.85 1360.87C1343.62 1357.93 1340.29 1333.79 1339.92 1328.19C1339.15 1323.64 1339.05 1321.85 1339.03 1317.22C1336.68 1305.79 1335.18 1286.62 1333.88 1274.52L1325.98 1200.06C1320.74 1149.36 1312.82 1090.97 1309.65 1041.02C1278.15 1072.1 1242.28 1104.11 1212.11 1136.1C1209.05 1108.55 1204.45 1080.9 1201.75 1053.25C1200.89 1044.45 1199.8 1033.05 1198.01 1024.53C1197.98 1021.73 1197 1015.31 1196.63 1012.25C1196.06 997.72 1191.56 969.109 1189.63 953.855L1189.66 950.404L1188.28 949.57C1184.6 951.064 1182.69 953.513 1179.84 956.358C1174.27 960.495 1168.38 965.54 1163.12 970.154C1128.58 1000.48 1091.24 1028.88 1057.26 1059.73C1062.61 1033.13 1064.65 999.302 1069.11 972.003C1069.92 967.055 1074.1 937.085 1073.81 934.065L1071.23 932.629L1073.81 932.118C1075.56 929.987 1076.79 907.695 1076.49 903.808C1072.55 900.222 1065.86 899.114 1060.78 895.57C1067.73 897.475 1072.5 898.831 1079.17 901.452C1080.37 891.155 1081.82 880.142 1082.73 869.875C1030.28 851.616 975.672 831.593 923.117 814.195Z"/><path fill="#10110B" d="M1339.03 1317.22C1339.08 1314.31 1338.73 1310.87 1340.26 1308.58C1342.76 1313.31 1341.46 1323.19 1339.92 1328.19C1339.15 1323.64 1339.05 1321.85 1339.03 1317.22Z"/><path fill="#FFFFFF" d="M1236.04 1063.35C1236.18 1058.01 1235.36 1054.97 1238.06 1050.91L1239.56 1050.96L1239.31 1051.82L1238.76 1050.54C1239.02 1052.11 1239.05 1053.38 1238.91 1054.96L1240.15 1056.25C1244.5 1056.5 1242.47 1056.88 1246.47 1054.96L1247.69 1055.87C1244.37 1059.55 1241.77 1062.76 1237.62 1065.56L1236.24 1065.23L1236.04 1063.35Z"/></svg>